<svg xmlns="http://www.w3.org/2000/svg" width="128" height="128" viewBox="0 0 128 128"><rect width="100%" height="100%" fill="#E0E7FF"/><path fill="#4F46E5" d="M31.415 64.275h3.32q1.22 0 2.12-.31.91-.3 1.51-.87.61-.57.9-1.39.3-.82.3-1.82 0-.96-.3-1.73-.29-.78-.89-1.32-.59-.55-1.5-.84t-2.14-.29h-3.32zm-4.44-12h7.76q2.39 0 4.14.56t2.88 1.57q1.14 1.01 1.7 2.41.55 1.4.55 3.07 0 1.73-.58 3.17-.58 1.45-1.73 2.49-1.16 1.04-2.9 1.61-1.74.58-4.06.58h-3.32v8.4h-4.44zm23 13.45h7.69q0-.79-.22-1.49-.22-.71-.67-1.23-.45-.53-1.13-.84-.69-.3-1.59-.3-1.77 0-2.78 1-1.02 1.01-1.3 2.86m10.4 2.46h-10.48q.1 1.3.46 2.25t.96 1.57q.59.62 1.41.92.82.31 1.81.31t1.7-.24q.72-.23 1.26-.51.53-.28.94-.51.4-.23.78-.23.51 0 .76.38l1.17 1.49q-.67.79-1.52 1.32-.84.54-1.75.86-.92.32-1.87.46-.95.13-1.84.13-1.76 0-3.28-.59-1.52-.58-2.64-1.73t-1.77-2.84q-.64-1.69-.64-3.92 0-1.73.56-3.26.56-1.52 1.61-2.65t2.56-1.79 3.4-.66q1.61 0 2.96.51t2.32 1.49q.98.98 1.53 2.41t.55 3.26q0 .92-.19 1.25-.2.32-.76.32m7.6-7.96.25 1.92q.79-1.52 1.88-2.39 1.09-.86 2.58-.86 1.17 0 1.88.51l-.27 3.05q-.08.3-.24.42-.15.13-.42.13-.24 0-.73-.09-.49-.08-.95-.08-.68 0-1.2.2-.53.2-.95.57t-.75.9q-.32.53-.6 1.2v10.43h-4.07v-16.93h2.39q.63 0 .87.22.25.23.33.8m13.98 15.91h-4.08v-13.86l-1.47-.23q-.47-.1-.76-.34t-.29-.68v-1.67h2.52v-1.25q0-1.46.44-2.61.44-1.16 1.25-1.97.82-.8 1.99-1.23t2.64-.43q1.17 0 2.18.31l-.08 2.05q-.02.23-.13.37-.12.14-.31.21-.19.08-.44.1-.24.03-.52.03-.73 0-1.3.15-.57.16-.96.55-.4.39-.61 1.02-.2.64-.2 1.58v1.12h4.4v2.9h-4.27zm6.7-16.93h4.09v16.93h-4.09zm4.65-4.93q0 .53-.21.99-.22.46-.57.81-.36.34-.84.55-.47.21-1.02.21-.53 0-1-.21t-.81-.55q-.35-.35-.56-.81-.2-.46-.2-.99 0-.55.2-1.03.21-.47.56-.82.34-.35.81-.55.47-.21 1-.21.55 0 1.02.21.48.2.84.55.35.35.57.82.21.48.21 1.03m3.65-2.66h4.07v24.52h-4.07z"/></svg>